<?xml version="1.0" encoding="utf-8"?>
<!-- Generator: Adobe Illustrator 16.0.0, SVG Export Plug-In . SVG Version: 6.00 Build 0)  -->
<!DOCTYPE svg PUBLIC "-//W3C//DTD SVG 1.1//EN" "http://www.w3.org/Graphics/SVG/1.1/DTD/svg11.dtd">
<svg version="1.1" id="Layer_1" xmlns="http://www.w3.org/2000/svg" xmlns:xlink="http://www.w3.org/1999/xlink" x="0px" y="0px"
	 width="960px" height="281px" viewBox="0 0 960 281" enable-background="new 0 0 960 281" xml:space="preserve">
<g>
	<path fill="none" d="M0,30.167h34.581V0h41.198v30.167h147.856l6.988,39.724c-38.986,36.045-83.86,65.833-125.425,87.532
		l-21.334-37.15c28.69-13.234,52.965-28.313,76.876-46.342H75.779v195.688H34.581V73.93H0V30.167z M148.236,154.486
		c27.583,30.533,53.331,63.627,77.61,99.678L192,280.65c-22.802-35.69-50.018-69.521-77.602-99.687L148.236,154.486z"/>
	<path fill="none" d="M243.128,247.18L349.795,12.876l37.513,17.658l-86.435,187.581l105.933-28.689l-30.529-68.777l38.249-17.29
		l70.625,155.946l-37.886,17.299l-22.067-47.08l-166.256,42.291L243.128,247.18z"/>
	<path fill="none" d="M478.892,30.167h34.581V0h41.197v30.167h147.861l6.983,39.724c-38.979,36.045-83.864,65.833-125.422,87.532
		l-21.338-37.15c28.689-13.234,52.974-28.313,76.873-46.342H554.67v195.688h-41.197V73.93h-34.581V30.167z M627.127,154.486
		c27.588,30.533,53.33,63.627,77.607,99.678l-33.83,26.486c-22.808-35.69-50.025-69.521-77.613-99.687L627.127,154.486z"/>
	<path fill="none" d="M739.674,24.279h176.183v43.768H808.461v43.405H960v44.135H808.461V189.8c0,24.267,6.615,36.033,30.531,36.033
		h107.764l-9.93,43.785h-98.568c-52.238,0-70.996-27.229-70.996-79.818v-34.213H732.32v-44.135h34.94V68.047h-27.588L739.674,24.279
		L739.674,24.279z"/>
</g>
</svg>
