<?xml version="1.0" encoding="utf-8"?>
<!-- Generator: Adobe Illustrator 16.0.0, SVG Export Plug-In . SVG Version: 6.00 Build 0)  -->
<!DOCTYPE svg PUBLIC "-//W3C//DTD SVG 1.1//EN" "http://www.w3.org/Graphics/SVG/1.1/DTD/svg11.dtd">
<svg version="1.1" id="Layer_1" xmlns="http://www.w3.org/2000/svg" xmlns:xlink="http://www.w3.org/1999/xlink" x="0px" y="0px"
	 width="960px" height="281px" viewBox="0 0 960 281" enable-background="new 0 0 960 281" xml:space="preserve">
<g>
	<path fill="none" d="M114.398,180.964c27.584,30.167,54.8,63.996,77.602,99.686l33.846-26.486
		c-24.279-36.049-50.026-69.144-77.61-99.678L114.398,180.964z"/>
	<path fill="none" d="M76,30V0H35v30H0v44h35v196h41V74h84.74c-23.912,18-48.187,33.073-76.876,46.308l21.334,37.133
		c41.565-21.699,86.439-51.579,125.425-87.624L223.635,30H76z"/>
	<polygon fill="none" points="376.277,120.648 406.806,189.425 300.873,218.114 387.308,30.534 349.795,12.876 243.128,247.18 
		258.941,271.813 425.197,229.522 447.265,276.603 485.15,259.304 414.525,103.358 	"/>
	<path fill="none" d="M555,30V0h-42v30h-34v44h34v196h42V74h84.629c-23.9,18-48.184,33.073-76.873,46.308l21.338,37.133
		c41.557-21.699,86.443-51.579,125.422-87.624L702.531,30H555z"/>
	<path fill="none" d="M593.291,180.964c27.588,30.167,54.807,63.996,77.613,99.686l33.83-26.486
		c-24.277-36.049-50.02-69.144-77.607-99.678L593.291,180.964z"/>
	<path fill="none" d="M960,156v-45H808V68h108V24H740v44h27v43h-35v45h35v33.801C767,242.389,786.02,270,838.258,270h98.568l9.93-44
		H838.992C815.076,226,808,214.067,808,189.801V156H960z"/>
</g>
<g>
</g>
<g>
</g>
<g>
</g>
<g>
</g>
<g>
</g>
<g>
</g>
<g>
</g>
<g>
</g>
<g>
</g>
<g>
</g>
<g>
</g>
<g>
</g>
<g>
</g>
<g>
</g>
<g>
</g>
</svg>
